<?xml version="1.0" encoding="iso-8859-1"?>
<!-- Generator: Adobe Illustrator 19.0.0, SVG Export Plug-In . SVG Version: 6.00 Build 0)  -->
<svg version="1.1" id="Capa_1" xmlns="http://www.w3.org/2000/svg" xmlns:xlink="http://www.w3.org/1999/xlink" x="0px" y="0px"
	 viewBox="0 0 512 512" style="enable-background:new 0 0 512 512;" xml:space="preserve" fill="#1F3F59">
<g>
	<g>
		<path d="M293.583,54.645c-28.064,0-50.895,22.905-50.895,51.059s22.832,51.059,50.895,51.059s50.894-22.905,50.894-51.059
			S321.646,54.645,293.583,54.645z M293.583,141.763c-19.792,0-35.895-16.176-35.895-36.059s16.103-36.059,35.895-36.059
			s35.894,16.176,35.894,36.059S313.375,141.763,293.583,141.763z"/>
	</g>
</g>
<g>
	<g>
		<path d="M504.5,442.353h-14.882c-0.314-0.192-0.642-0.379-0.997-0.554l-28.046-13.787l-19.882-29.231h42.991
			c10.73,0,19.46-8.75,19.46-19.504c0-8.408-5.335-15.59-12.79-18.325c-0.57-13.986-12.097-25.189-26.184-25.189h-4.906
			c-8.091,0-15.689,3.812-20.6,10.047c-0.084-0.001-0.168-0.001-0.252-0.001h-8.585c-7.728,0-14.438,4.408-17.792,10.84
			l-45.948-67.553c-2.181-3.203-5.499-5.04-9.105-5.04c-3.607,0-6.926,1.838-9.106,5.043l-45.429,66.787l-14.355-21.105
			c-2.329-3.425-6.994-4.312-10.419-1.983c-3.426,2.33-4.314,6.995-1.983,10.42l46.108,67.788l-22.667,8.206
			c-0.077,0.005-0.183-0.003-0.266-0.013l-38.896-18.496c-3.599-1.712-8.409-1.664-11.973,0.123L202,423.879l-25.479-16.438
			c-3.501-2.26-8.599-2.645-12.4-0.935l-27.608,12.417l-32.065-19.391c-3.789-2.29-9.084-2.298-12.881-0.019l-15.287,9.181
			l18.061-26.553H122c4.143,0,7.5-3.358,7.5-7.5c0-4.142-3.357-7.5-7.5-7.5H55.788c-3.213,0-5.827-2.637-5.827-5.878
			c0-3.242,2.614-5.879,5.827-5.879h7.569c2.411,0,4.675-1.159,6.084-3.115c1.41-1.956,1.794-4.47,1.031-6.757
			c-0.589-1.767-0.888-3.603-0.888-5.458c0-9.463,7.657-17.163,17.07-17.163H93.1c7.65,0,14.414,5.173,16.448,12.581
			c0.622,2.263,2.267,4.105,4.445,4.977c2.179,0.872,4.641,0.675,6.651-0.535c1.426-0.857,2.975-1.291,4.604-1.291h11.277
			c4.917,0,8.927,3.984,9.013,8.915c-0.004,0.083-0.007,0.163-0.008,0.228c-0.031,2.009,0.744,3.947,2.154,5.379
			c1.409,1.432,3.335,2.239,5.345,2.239h11.287c3.213,0,5.827,2.637,5.827,5.879c0,3.241-2.614,5.878-5.827,5.878H159
			c-4.143,0-7.5,3.358-7.5,7.5c0,4.142,3.357,7.5,7.5,7.5h5.317c11.484,0,20.827-9.366,20.827-20.878
			c0-11.513-9.343-20.879-20.827-20.879h-4.91c-3.096-9.711-12.183-16.761-22.881-16.761h-2.383l11.839-17.406l7.225,10.623
			c2.063,3.031,5.219,4.77,8.657,4.77c0.001,0,0.002,0,0.002,0c3.439,0,6.595-1.74,8.656-4.771l12.058-17.727l7.219,10.613
			c2.064,3.03,5.219,4.768,8.657,4.767h0.002c3.438-0.001,6.593-1.739,8.656-4.772l4.122-6.06l10.853,15.955
			c2.063,3.033,5.219,4.772,8.658,4.772c3.44,0,6.597-1.74,8.658-4.771l10.117-14.873l5.765,8.475
			c2.33,3.425,6.994,4.312,10.419,1.983c3.425-2.33,4.313-6.995,1.983-10.42l-59.821-87.948c-2.313-3.399-5.814-5.35-9.609-5.351
			c-0.002,0-0.003,0-0.005,0c-3.794,0-7.297,1.949-9.615,5.351l-70.322,103.386c-5.954-7.587-15.175-12.328-25.217-12.328h-6.444
			c-17.684,0-32.07,14.428-32.07,32.163c0,0.121,0.001,0.242,0.002,0.363c-10.928,0.626-19.626,9.736-19.626,20.845
			c0,11.512,9.343,20.878,20.827,20.878H76.2l-30.59,44.973l-24.587,14.766c-0.256,0.153-0.496,0.313-0.726,0.475H7.5
			c-4.143,0-7.5,3.358-7.5,7.5c0,4.142,3.357,7.5,7.5,7.5H310c4.143,0,7.5-3.358,7.5-7.5c0-4.142-3.357-7.5-7.5-7.5H49.367
			l48.619-29.198l31.566,19.089c3.495,2.112,8.536,2.417,12.26,0.743l27.48-12.359l25.652,16.55
			c3.602,2.325,8.798,2.609,12.63,0.686l46.55-23.333l38.546,18.33c3.311,1.576,7.855,1.796,11.307,0.548l25.557-9.252
			c0.129-0.008,0.303-0.002,0.427,0.014l26.804,11.777c3.318,1.459,7.825,1.579,11.219,0.299l42.559-16.058
			c0.043,0,0.089,0.002,0.131,0.006l45.076,22.159H348c-4.143,0-7.5,3.358-7.5,7.5c0,4.142,3.357,7.5,7.5,7.5h156.5
			c4.143,0,7.5-3.358,7.5-7.5C512,445.711,508.643,442.353,504.5,442.353z M198.254,229.37l42.198,62.039l-9.705,14.267
			l-13.311-19.568c-1.396-2.053-3.719-3.282-6.201-3.282c-2.483,0-4.806,1.229-6.201,3.282l-6.579,9.672l-9.674-14.222
			c-1.396-2.053-3.719-3.282-6.201-3.282c-2.483,0-4.805,1.229-6.201,3.282l-14.515,21.339l-6.812-10.014L198.254,229.37z
			 M414.104,374.771h3.223c2.127,0,4.153-0.903,5.576-2.484c1.421-1.58,2.106-3.691,1.881-5.806c-0.021-0.192-0.03-0.373-0.03-0.552
			c0-2.824,2.275-5.121,5.073-5.121h8.585c0.528,0,1.066,0.09,1.6,0.267c3.593,1.193,7.513-0.477,9.139-3.896
			c1.854-3.898,5.823-6.417,10.114-6.417h4.906c6.179,0,11.206,5.059,11.206,11.276c0,1.06-0.151,2.122-0.449,3.157
			c-0.652,2.264-0.202,4.703,1.215,6.586c1.417,1.882,3.636,2.99,5.992,2.99h1.55c2.459,0,4.46,2.021,4.46,4.505
			c0,2.483-2.001,4.504-4.46,4.504h-69.581c-2.459,0-4.459-2.021-4.459-4.504C409.645,376.792,411.645,374.771,414.104,374.771z
			 M356.982,302.38l27.871,40.975l-6.061,8.911l-6.564-9.649c-1.396-2.053-3.719-3.282-6.201-3.282
			c-2.483,0-4.805,1.229-6.201,3.282l-15.942,23.439l-15.107-22.21L356.982,302.38z M417,406.591
			c-3.353-1.649-7.96-1.87-11.454-0.55l-42.623,16.083c-0.105,0.006-0.247,0.002-0.355-0.009l-21.497-9.446l-29.554-43.449
			l8.188-12.039l15.864,23.323c1.971,2.898,5,4.561,8.31,4.562c0.001,0,0.002,0,0.004,0c3.309,0,6.338-1.661,8.314-4.563
			l13.829-20.333l4.451,6.543c1.973,2.899,5.002,4.562,8.312,4.563c0.001,0,0.001,0,0.001,0c3.311-0.001,6.34-1.662,8.315-4.563
			l6.817-10.023l6.174,9.077c-3.369,3.509-5.453,8.267-5.453,13.51c0,10.754,8.729,19.504,19.459,19.504h8.449l10.77,15.833
			L417,406.591z"/>
	</g>
</g>
<g>
	<g>
		<path d="M112.767,108.634c-11.647,0-21.124,9.494-21.124,21.164c0,11.67,9.476,21.164,21.124,21.164
			c11.648,0,21.125-9.494,21.125-21.164C133.892,118.128,124.415,108.634,112.767,108.634z M112.767,135.962
			c-3.377,0-6.124-2.765-6.124-6.164c0-3.398,2.747-6.164,6.124-6.164c3.377,0,6.125,2.766,6.125,6.164
			C118.892,133.196,116.144,135.962,112.767,135.962z"/>
	</g>
</g>
<g>
	<g>
		<path d="M462.27,264.763c-11.648,0-21.125,9.494-21.125,21.164s9.476,21.164,21.125,21.164c11.647,0,21.124-9.494,21.124-21.164
			C483.394,274.257,473.917,264.763,462.27,264.763z M462.27,292.091c-3.377,0-6.125-2.765-6.125-6.164s2.748-6.164,6.125-6.164
			s6.124,2.765,6.124,6.164C468.394,289.325,465.647,292.091,462.27,292.091z"/>
	</g>
</g>
<g>
	<g>
		<path d="M62.049,223.101c-11.647,0-21.124,9.494-21.124,21.164s9.476,21.164,21.124,21.164c11.649,0,21.125-9.494,21.125-21.164
			S73.698,223.101,62.049,223.101z M62.049,250.429c-3.377,0-6.124-2.765-6.124-6.164c0-3.398,2.747-6.164,6.124-6.164
			s6.125,2.766,6.125,6.164S65.426,250.429,62.049,250.429z"/>
	</g>
</g>
<g>
	<g>
		<path d="M409.515,166.434c-11.648,0-21.125,9.494-21.125,21.165c0,11.67,9.476,21.164,21.125,21.164
			c11.648,0,21.124-9.494,21.124-21.164C430.639,175.929,421.162,166.434,409.515,166.434z M409.515,193.764
			c-3.377,0-6.125-2.765-6.125-6.164c0-3.399,2.748-6.165,6.125-6.165s6.124,2.766,6.124,6.165
			C415.639,190.998,412.892,193.764,409.515,193.764z"/>
	</g>
</g>
<g>
	<g>
		<path d="M297.27,228.435c-11.649,0-21.125,9.494-21.125,21.165c0,11.669,9.477,21.164,21.125,21.164
			c11.647,0,21.124-9.494,21.124-21.164C318.394,237.93,308.917,228.435,297.27,228.435z M297.27,255.764
			c-3.377,0-6.125-2.765-6.125-6.164c0-3.399,2.748-6.165,6.125-6.165s6.124,2.766,6.124,6.165
			C303.394,252.998,300.647,255.764,297.27,255.764z"/>
	</g>
</g>
<g>
</g>
<g>
</g>
<g>
</g>
<g>
</g>
<g>
</g>
<g>
</g>
<g>
</g>
<g>
</g>
<g>
</g>
<g>
</g>
<g>
</g>
<g>
</g>
<g>
</g>
<g>
</g>
<g>
</g>
</svg>
